# xmcd
#
# Track frame offsets:
#	150
#	11324
#	23290
#	35540
#	47957
#	61330
#	72405
#	86726
#	99213
#	111256
#	123634
#	136802
#
# Disc length: 2107 seconds
#
# Revision: 0
# Processed by: cddbd v1.5.2PL0 Copyright (c) Steve Scherf et al.
# Submitted via: EasyCDDAExtractor 16.0.6.1
#
DISCID=9708390c
DTITLE=Νταλάρας Γιώργος - Στα ψηλά τα παραθύρια-Σ. Κουγιουμτζής
DYEAR=1975
DGENRE=Έντεχνη λαϊκή
TTITLE0=Νταλάρας Γιώργος-Βίσση Άννα - Στα ψηλά τα παραθύρια
TTITLE1=Νταλάρας Γιώργος - Έχεις την πόρτα σου κλειστή
TTITLE2=Νταλάρας Γιώργος - Σαν σβησμένο καρβουνάκι
TTITLE3=Βίσση Άννα - Παραμύθι ξεχασμένο
TTITLE4=Νταλάρας Γιώργος-Βίσση Άννα - Αχ, τι άδικο
TTITLE5=Άνευ ερμηνευτού - Η πρώτη άνοιξη
TTITLE6=Νταλάρας Γιώργος-Βίσση Άννα - Όλα καλά
TTITLE7=Νταλάρας Γιώργος-Βίσση Άννα - Σαν ραγίσει το ποτήρι
TTITLE8=Βίσση Άννα - Για την αγάπη πες μου
TTITLE9=Νταλάρας Γιώργος - Κάποιος χτύπησε την πόρτα
TTITLE10=Βίσση Άννα-Νταλάρας Γιώργος - Στα χρόνια της υπομονής
TTITLE11=Νταλάρας Γιώργος-Βίσση Άννα - Μη μού θυμώνεις μάτια μου
EXTD=
EXTT0=
EXTT1=
EXTT2=
EXTT3=
EXTT4=
EXTT5=
EXTT6=
EXTT7=
EXTT8=
EXTT9=
EXTT10=
EXTT11=
PLAYORDER=
